<svg width="1024" height="1024" viewBox="0 0 1024 1024" fill="none" xmlns="http://www.w3.org/2000/svg">
<circle cx="512" cy="512" r="400" fill="#03D8B2"/>
<path d="M684.667 456.416C684.23 408.499 664.882 362.692 630.832 328.963C596.781 295.233 550.784 276.31 502.847 276.31C454.911 276.31 408.913 295.233 374.863 328.963C340.813 362.692 321.464 408.499 321.028 456.416V706.052H684.667V456.416Z" fill="#F4F4F4"/>
<path d="M511.301 688.02C532.468 664.086 543.323 632.764 541.505 600.87C539.688 568.975 525.344 539.088 501.594 517.712C477.845 496.336 446.612 485.2 414.691 486.726C382.769 488.253 352.743 502.319 331.143 525.864L219.744 649.541L399.901 811.697L511.301 688.02Z" fill="#0D1311"/>
</svg>
