<?xml version="1.0" encoding="UTF-8" standalone="no"?>
<!-- Generator: Adobe Illustrator 22.0.1, SVG Export Plug-In . SVG Version: 6.00 Build 0)  -->

<svg
   xmlns:dc="http://purl.org/dc/elements/1.1/"
   xmlns:cc="http://creativecommons.org/ns#"
   xmlns:rdf="http://www.w3.org/1999/02/22-rdf-syntax-ns#"
   xmlns:svg="http://www.w3.org/2000/svg"
   xmlns="http://www.w3.org/2000/svg"
   xmlns:sodipodi="http://sodipodi.sourceforge.net/DTD/sodipodi-0.dtd"
   xmlns:inkscape="http://www.inkscape.org/namespaces/inkscape"
   version="1.1"
   id="archForm_x5F_Vault_Logo"
   x="0px"
   y="0px"
   viewBox="0 0 512.00001 511.99998"
   xml:space="preserve"
   sodipodi:docname="icon.svg"
   width="512"
   height="512"
   inkscape:version="0.92.4 (5da689c313, 2019-01-14)"><metadata
   id="metadata13"><rdf:RDF><cc:Work
       rdf:about=""><dc:format>image/svg+xml</dc:format><dc:type
         rdf:resource="http://purl.org/dc/dcmitype/StillImage" /><dc:title></dc:title></cc:Work></rdf:RDF></metadata><defs
   id="defs11" /><sodipodi:namedview
   pagecolor="#ffffff"
   bordercolor="#666666"
   borderopacity="1"
   objecttolerance="10"
   gridtolerance="10"
   guidetolerance="10"
   inkscape:pageopacity="0"
   inkscape:pageshadow="2"
   inkscape:window-width="1787"
   inkscape:window-height="1039"
   id="namedview9"
   showgrid="false"
   inkscape:zoom="0.33670993"
   inkscape:cx="299.89999"
   inkscape:cy="350.45001"
   inkscape:window-x="1181"
   inkscape:window-y="227"
   inkscape:window-maximized="0"
   inkscape:current-layer="archForm_x5F_Vault_Logo" />


<g
   id="g3721"
   transform="matrix(0.64,0,0,0.64,64.032,152.35201)"><path
     inkscape:connector-curvature="0"
     id="path2"
     d="m 269.9,-53.100024 c 0,-74.499996 -60.4,-134.999996 -135,-134.999996 -74.6,0 -134.9,60.5 -134.9,134.999996 V 131.59998 h 269.9 z" /><path
     inkscape:connector-curvature="0"
     id="path4"
     d="m 269.9,326.59998 c 0,-74.5 -60.4,-135 -135,-135 -74.6,0 -134.9,60.5 -134.9,135 v 185.3 h 269.9 z" /><path
     inkscape:connector-curvature="0"
     id="path6"
     d="M 599.8,511.99998 H 329.9 v -185.4 c 0,-74.5 60.4,-135 135,-135 v -60 h -135 V -53.100024 c 0,-74.499996 60.4,-134.999996 135,-134.999996 74.6,0 135,60.4 135,134.999996 V 511.99998 Z" /></g>
</svg>