<svg width="3220" height="1262" viewBox="0 0 3220 1262" fill="none" xmlns="http://www.w3.org/2000/svg">
<path d="M706.445 1083.9C708.439 1083.4 710.488 1083.14 712.545 1083.14H3018.05C3047.51 1083.14 3052.72 1125.2 3024.15 1132.39L2513.56 1260.87C2511.56 1261.37 2509.51 1261.62 2507.46 1261.62H201.949C172.49 1261.62 167.28 1219.57 195.848 1212.38L706.445 1083.9Z" fill="#C1DAF0"/>
<path d="M2731.39 0.379395H2643.49V1159.47L2731.39 0.379395ZM2643.49 1159.47H2731.39V0.379395L2643.49 1159.47Z" fill="#26547C"/>
<path d="M2605.91 60.8401H2518.01V1159.47L2605.91 60.8401ZM2518.01 1159.47H2605.91V60.8401L2518.01 1159.47Z" fill="#26547C"/>
<path d="M2480.44 122.592H2392.54V1159.47L2480.44 122.592ZM2392.54 1159.47H2480.44V122.592L2392.54 1159.47Z" fill="#26547C"/>
<path d="M2354.96 100.115H2267.06V1160.77L2354.96 100.115ZM2267.06 1160.77H2354.96V100.115L2267.06 1160.77Z" fill="#26547C"/>
<path d="M2229.49 146.071H2141.59V1160.77L2229.49 146.071ZM2141.59 1160.77H2229.49V146.071L2141.59 1160.77Z" fill="#26547C"/>
<path d="M2104.02 234.445H2016.11V1160.77L2104.02 234.445ZM2016.11 1160.77H2104.02V234.445L2016.11 1160.77Z" fill="#26547C"/>
<path d="M1978.54 194.729H1890.64V1160.77L1978.54 194.729ZM1890.64 1160.77H1978.54V194.729L1890.64 1160.77Z" fill="#26547C"/>
<path d="M1853.07 173.984H1765.16V1160.77L1853.07 173.984ZM1765.16 1160.77H1853.07V173.984L1765.16 1160.77Z" fill="#26547C"/>
<path d="M1727.59 342.505H1639.69V1160.77L1727.59 342.505ZM1639.69 1160.77H1727.59V342.505L1639.69 1160.77Z" fill="#26547C"/>
<path d="M1602.12 288.86H1514.22V1160.77L1602.12 288.86ZM1514.22 1160.77H1602.12V288.86L1514.22 1160.77Z" fill="#26547C"/>
<path d="M1476.64 322.114H1388.74V1160.77L1476.64 322.114ZM1388.74 1160.77H1476.64V322.114L1388.74 1160.77Z" fill="#26547C"/>
<path d="M1310.29 957.623H1222.39V1161.08L1310.29 957.623ZM1222.39 1161.08H1310.29V957.623L1222.39 1161.08Z" fill="#C8CBCA"/>
<path d="M1188.15 926.013H1100.25V1161.08L1188.15 926.013ZM1100.25 1161.08H1188.15V926.013L1100.25 1161.08Z" fill="#C8CBCA"/>
<path d="M1066.01 895.716H978.112V1161.08L1066.01 895.716ZM978.112 1161.08H1066.01V895.716L978.112 1161.08Z" fill="#C8CBCA"/>
<path d="M943.877 956.495H855.974V1161.08L943.877 956.495ZM855.974 1161.08H943.877V956.495L855.974 1161.08Z" fill="#C8CBCA"/>
<path d="M821.738 926.013H733.835V1161.08L821.738 926.013ZM733.835 1161.08H821.738V926.013L733.835 1161.08Z" fill="#C8CBCA"/>
<path d="M699.6 956.495H611.697V1161.08L699.6 956.495ZM611.697 1161.08H699.6V956.495L611.697 1161.08Z" fill="#C8CBCA"/>
<path d="M577.461 1016.22H489.558V1162.21L577.461 1016.22ZM489.558 1162.21H577.461V1016.22L489.558 1162.21Z" fill="#C8CBCA"/>
<path d="M2753.58 4.16076L2731.39 0.378174V1159.47L2753.58 1155.68V4.16076Z" fill="#11283B"/>
<path d="M2628.11 64.4254L2605.91 60.8401V1159.47L2628.11 1155.88V64.4254Z" fill="#11283B"/>
<path d="M2502.63 125.98L2480.44 122.592V1160.77L2502.63 1157.37V125.98Z" fill="#11283B"/>
<path d="M2377.16 103.577L2354.96 100.115V1160.77L2377.16 1157.3V103.577Z" fill="#11283B"/>
<path d="M2251.68 149.382L2229.49 146.071V1160.77L2251.68 1157.45V149.382Z" fill="#11283B"/>
<path d="M2124.28 237.468L2104.02 234.445V1160.77L2124.28 1157.74V237.468Z" fill="#11283B"/>
<path d="M1998.8 197.881L1978.54 194.729V1160.77L1998.8 1157.61V197.881Z" fill="#11283B"/>
<path d="M1873.33 177.204L1853.07 173.984V1160.77L1873.33 1157.54V177.204Z" fill="#11283B"/>
<path d="M1744.39 345.176L1727.59 342.505V1160.77L1744.39 1158.09V345.176Z" fill="#11283B"/>
<path d="M1618.92 291.705L1602.12 288.86V1160.77L1618.92 1157.92V291.705Z" fill="#11283B"/>
<path d="M1493.45 324.851L1476.65 322.114V1160.77L1493.45 1158.03V324.851Z" fill="#11283B"/>
<path d="M1327.09 958.286L1310.29 957.623V1160.77L1327.09 1160.1V958.286Z" fill="#909090"/>
<path d="M1204.95 926.779L1188.15 926.013V1160.77L1204.95 1160V926.779Z" fill="#909090"/>
<path d="M838.539 926.779L821.738 926.013V1160.77L838.539 1160V926.779Z" fill="#909090"/>
<path d="M716.4 957.161L699.6 956.495V1160.77L716.4 1160.1V957.161Z" fill="#909090"/>
<path d="M594.262 1016.69L577.462 1016.22V1160.77L594.262 1160.29V1016.69Z" fill="#909090"/>
<path d="M960.677 957.161L943.876 956.495V1160.77L960.677 1160.1V957.161Z" fill="#909090"/>
<path d="M1082.81 896.581L1066.01 895.716V1160.77L1082.81 1159.9V896.581Z" fill="#909090"/>
<circle cx="1536.15" cy="985.759" r="129.746" fill="#F4F4F4"/>
<circle cx="1536.15" cy="985.76" r="103.453" fill="#03D8B2"/>
<path d="M1580.8 971.384C1580.69 958.991 1575.69 947.144 1566.88 938.42C1558.07 929.696 1546.18 924.802 1533.78 924.802C1521.38 924.802 1509.48 929.696 1500.68 938.42C1491.87 947.144 1486.87 958.991 1486.75 971.384V1035.95H1580.8V971.384Z" fill="#F4F4F4"/>
<path d="M1535.97 1031.28C1541.44 1025.09 1544.25 1016.99 1543.78 1008.74C1543.31 1000.5 1539.6 992.766 1533.46 987.237C1527.31 981.708 1519.23 978.828 1510.98 979.223C1502.72 979.618 1494.96 983.256 1489.37 989.346L1460.56 1021.33L1507.15 1063.27L1535.97 1031.28Z" fill="#0D1311"/>
<line x1="1357.91" y1="3.87891" x2="1357.91" y2="1160.81" stroke="#0D1311" stroke-width="7" stroke-linecap="round"/>
</svg>
