<svg width="2519" height="1172" viewBox="0 0 2519 1172" fill="none" xmlns="http://www.w3.org/2000/svg">
<path fill-rule="evenodd" clip-rule="evenodd" d="M2435.82 1171.16C2491.05 1171.16 2536.65 1124.14 2510.72 1075.37C2393.28 854.465 1877.57 688.092 1259.16 688.092C640.754 688.092 125.042 854.465 7.59713 1075.37C-18.3288 1124.14 27.2707 1171.16 82.4992 1171.16H2435.82Z" fill="#C1DAF0"/>
<path d="M2053.18 275.53L2143.61 344.409V1046.97L2053.18 1102.07V275.53Z" fill="#B46664"/>
<rect x="400.089" y="551.045" width="551.029" height="551.029" fill="#FB8D8B"/>
<rect x="909.79" y="0.015625" width="551.029" height="1102.06" fill="#FA5450"/>
<path d="M1460.82 0.015625L1551.26 68.8943V1046.97L1460.82 1102.07V0.015625Z" fill="#A33330"/>
<rect x="1502.15" y="275.53" width="551.029" height="826.544" fill="#FB8D8B"/>
<path d="M1214.03 337.798V166.585H1154.97L1120.43 259.866H1157.76L1173.92 207.912H1177.26V337.798H1118.76V373.221H1259.16V337.798H1214.03Z" fill="black"/>
<path d="M1703 519.5V526.446H1741.2V520.079C1741.2 494.322 1758.85 483.035 1779.69 483.035C1800.53 483.035 1814.13 494.322 1814.13 513.712C1814.13 537.443 1796.76 546.994 1767.82 554.808C1730.49 564.937 1704.15 582.88 1704.15 619.635V654.364H1851.17V619.635H1742.36V616.162C1742.36 597.351 1757.4 591.273 1785.77 584.038C1828.31 573.33 1852.33 554.808 1852.33 514.87C1852.33 473.195 1818.47 447.728 1779.11 447.728C1738.01 447.728 1703 472.038 1703 519.5Z" fill="black"/>
<path d="M604.41 723.242V759.129H695.573L646.085 799.067V833.217H681.392C700.782 833.217 714.385 842.767 714.385 862.157C714.385 880.969 700.204 894.571 676.183 894.571C650.426 894.571 636.824 878.943 636.824 859.263V852.896H598.622V861C598.622 901.227 627.852 929.878 676.183 929.878C721.33 929.878 752.586 903.253 752.586 862.157C752.586 825.403 727.408 806.012 699.335 806.012H691.811V802.539L747.956 757.971V723.242H604.41Z" fill="black"/>
</svg>